<svg width="221" height="113" viewBox="0 0 221 113" fill="none" xmlns="http://www.w3.org/2000/svg">
<path d="M149.75 86.5C149.917 87.6333 150.1 88.8167 150.3 90.05C150.5 91.25 150.7 92.55 150.9 93.95C152.433 92.9833 154.033 92.0167 155.7 91.05C157.4 90.05 158.983 89.25 160.45 88.65C160.583 88.6167 160.75 88.6167 160.95 88.65C161.183 88.65 161.417 88.7 161.65 88.8C161.883 88.8667 162.083 88.9667 162.25 89.1C162.417 89.2333 162.533 89.4 162.6 89.6C162.667 89.8333 162.617 90.15 162.45 90.55C162.283 90.9167 162.1 91.1333 161.9 91.2C161.5 91.4333 160.967 91.75 160.3 92.15C159.667 92.5167 158.983 92.9167 158.25 93.35C157.55 93.7833 156.85 94.2167 156.15 94.65C155.483 95.0833 154.917 95.45 154.45 95.75C156.35 96.7833 158.2 97.6667 160 98.4C161.833 99.1333 163.767 99.7333 165.8 100.2C166 100.233 166.2 100.367 166.4 100.6C166.633 100.8 166.817 101.05 166.95 101.35C167.083 101.65 167.15 101.95 167.15 102.25C167.183 102.55 167.117 102.817 166.95 103.05C166.75 103.317 166.467 103.483 166.1 103.55C165.767 103.583 165.417 103.567 165.05 103.5C162.517 102.9 160.2 102.167 158.1 101.3C156 100.4 153.8 99.3167 151.5 98.05C151.667 99.4833 151.817 100.967 151.95 102.5C152.117 104.033 152.267 105.65 152.4 107.35C152.4 107.717 152.25 107.933 151.95 108C151.65 108.033 151.317 108.017 150.95 107.95C150.583 107.883 150.25 107.767 149.95 107.6C149.65 107.433 149.467 107.267 149.4 107.1C149.2 105.567 148.983 103.95 148.75 102.25C148.55 100.55 148.317 98.8333 148.05 97.1C147.783 95.3333 147.5 93.6 147.2 91.9C146.9 90.1667 146.6 88.5167 146.3 86.95C146.233 86.5833 146.317 86.1667 146.55 85.7C146.783 85.2 147.217 84.9167 147.85 84.85C148.083 84.85 148.3 84.9167 148.5 85.05C148.733 85.15 148.933 85.3 149.1 85.5C149.3 85.6667 149.45 85.85 149.55 86.05C149.65 86.2167 149.717 86.3667 149.75 86.5ZM175.017 103.5C175.05 103.633 175.067 103.833 175.067 104.1C175.067 104.333 175.017 104.583 174.917 104.85C174.817 105.083 174.667 105.3 174.467 105.5C174.3 105.667 174.05 105.75 173.717 105.75C172.983 105.283 172.367 104.667 171.867 103.9C171.6 102.9 171.35 101.75 171.117 100.45C170.917 99.15 170.75 97.8 170.617 96.4C170.483 94.9667 170.383 93.5167 170.317 92.05C170.283 90.5833 170.283 89.1667 170.317 87.8C170.317 87.5667 170.333 87.2667 170.367 86.9C170.433 86.5333 170.533 86.1833 170.667 85.85C170.8 85.4833 170.967 85.1833 171.167 84.95C171.367 84.6833 171.65 84.55 172.017 84.55C172.45 84.55 172.8 84.6833 173.067 84.95C173.333 85.2167 173.467 85.65 173.467 86.25C173.433 87.5833 173.433 89.0167 173.467 90.55C173.533 92.05 173.633 93.5667 173.767 95.1C173.9 96.6333 174.067 98.1333 174.267 99.6C174.5 101.033 174.75 102.333 175.017 103.5ZM179.965 88C179.465 88.2 179.032 88.2167 178.665 88.05C178.298 87.8833 178.032 87.6667 177.865 87.4C177.632 87.0667 177.565 86.7167 177.665 86.35C177.765 85.9833 178.048 85.6667 178.515 85.4C179.282 84.9667 180.248 84.6167 181.415 84.35C182.582 84.05 183.832 83.9667 185.165 84.1C186.498 84.2333 187.715 84.6 188.815 85.2C189.948 85.7667 190.898 86.5 191.665 87.4C192.465 88.3 193.065 89.3333 193.465 90.5C193.898 91.6333 194.098 92.8333 194.065 94.1C193.998 95.4333 193.732 96.7667 193.265 98.1C192.832 99.4333 192.215 100.683 191.415 101.85C190.648 103.017 189.715 104.083 188.615 105.05C187.548 105.983 186.365 106.717 185.065 107.25C184.165 107.483 183.482 107.517 183.015 107.35C182.548 107.183 182.232 106.983 182.065 106.75C181.998 106.583 181.965 106.367 181.965 106.1C181.998 105.8 182.182 105.5 182.515 105.2C182.115 101.967 181.865 98.85 181.765 95.85C181.698 92.8167 181.665 90.05 181.665 87.55C181.098 87.65 180.532 87.8 179.965 88ZM185.415 87.35C185.215 87.3167 184.998 87.3 184.765 87.3C184.565 87.2667 184.365 87.25 184.165 87.25C184.365 87.5167 184.532 87.85 184.665 88.25C184.798 88.6167 184.865 88.9833 184.865 89.35C184.865 91.3833 184.882 93.5667 184.915 95.9C184.982 98.2333 185.148 100.75 185.415 103.45C186.882 102.383 188.132 101.05 189.165 99.45C190.232 97.8167 190.798 96.1 190.865 94.3C190.898 92.6333 190.482 91.1667 189.615 89.9C188.748 88.6 187.348 87.75 185.415 87.35ZM210.98 86.45C210.847 86.6167 210.597 86.75 210.23 86.85C209.897 86.9167 209.547 86.8167 209.18 86.55C208.913 86.35 208.597 86.15 208.23 85.95C207.863 85.7167 207.463 85.5 207.03 85.3C206.597 85.1 206.163 84.9333 205.73 84.8C205.297 84.6667 204.88 84.6 204.48 84.6C203.98 84.6 203.447 84.7167 202.88 84.95C202.347 85.1833 201.88 85.5167 201.48 85.95C200.713 86.7833 200.43 87.6 200.63 88.4C200.863 89.1667 201.447 89.8833 202.38 90.55C202.98 90.9833 203.63 91.4333 204.33 91.9C205.03 92.3333 205.713 92.7667 206.38 93.2C207.08 93.6333 207.73 94.05 208.33 94.45C208.963 94.85 209.513 95.2 209.98 95.5C210.58 95.9 211.147 96.3333 211.68 96.8C212.213 97.2667 212.68 97.8 213.08 98.4C213.48 98.9667 213.797 99.6167 214.03 100.35C214.263 101.083 214.38 101.917 214.38 102.85C214.147 104.683 213.413 106.15 212.18 107.25C210.98 108.317 209.58 109 207.98 109.3C206.58 109.567 205.197 109.517 203.83 109.15C202.497 108.783 201.363 108.083 200.43 107.05C200.197 106.783 199.997 106.417 199.83 105.95C199.663 105.483 199.647 105.15 199.78 104.95C199.98 104.65 200.33 104.45 200.83 104.35C201.33 104.217 201.713 104.233 201.98 104.4C202.747 105.1 203.647 105.617 204.68 105.95C205.713 106.25 206.797 106.267 207.93 106C208.797 105.8 209.497 105.433 210.03 104.9C210.563 104.333 210.897 103.7 211.03 103C211.197 102.267 211.097 101.517 210.73 100.75C210.397 99.95 209.78 99.2333 208.88 98.6C207.513 97.5667 206.047 96.6 204.48 95.7C202.947 94.8 201.38 93.7667 199.78 92.6C199.013 91.9333 198.447 91.2 198.08 90.4C197.747 89.6 197.58 88.8167 197.58 88.05C197.58 87.25 197.747 86.5 198.08 85.8C198.413 85.0667 198.88 84.4167 199.48 83.85C200.08 83.25 200.78 82.7667 201.58 82.4C202.38 82.0333 203.263 81.8167 204.23 81.75C205.563 81.6833 206.847 81.9667 208.08 82.6C209.313 83.2 210.313 83.95 211.08 84.85C211.247 85.05 211.313 85.3 211.28 85.6C211.28 85.9 211.18 86.1833 210.98 86.45Z" fill="white"/>
<path d="M3.84 25.68V23.6H23.12V25.68L18.72 26.16C17.8667 26.2133 17.36 26.4267 17.2 26.8C17.04 27.12 16.96 28.2133 16.96 30.08V53.6L36.96 29.6C38.2933 28.0533 38.96 27.12 38.96 26.8C39.0133 26.4267 38.5867 26.2133 37.68 26.16L33.6 25.68V23.6H48.8V25.68L44.72 26.16C44.1867 26.2133 43.76 26.32 43.44 26.48C43.12 26.5867 42.7467 26.88 42.32 27.36C41.9467 27.7867 41.3067 28.5333 40.4 29.6L27.92 44.64L43.12 71.52C43.8133 72.7467 44.32 73.6267 44.64 74.16C45.0133 74.6933 45.3867 75.04 45.76 75.2C46.1333 75.3067 46.64 75.3867 47.28 75.44L51.12 75.92V78H38.64L23.28 50.24L16.96 57.76V71.52C16.96 73.3867 17.04 74.48 17.2 74.8C17.36 75.12 17.8667 75.3333 18.72 75.44L23.12 75.92V78H3.84V75.92L8.24 75.44C9.09333 75.3333 9.6 75.12 9.76 74.8C9.92 74.48 10 73.3867 10 71.52V30.08C10 28.2133 9.92 27.12 9.76 26.8C9.6 26.4267 9.09333 26.2133 8.24 26.16L3.84 25.68ZM55.3244 25.76V23.6H74.6044V25.76L70.2044 26.16C69.351 26.2667 68.8444 26.48 68.6844 26.8C68.5244 27.12 68.4444 28.2133 68.4444 30.08V71.52C68.4444 73.3867 68.5244 74.48 68.6844 74.8C68.8444 75.12 69.351 75.3333 70.2044 75.44L74.6044 75.92V78H55.3244V75.92L59.7244 75.44C60.5777 75.3333 61.0844 75.12 61.2444 74.8C61.4044 74.48 61.4844 73.3867 61.4844 71.52V30.08C61.4844 28.2133 61.4044 27.12 61.2444 26.8C61.0844 26.48 60.5777 26.2667 59.7244 26.16L55.3244 25.76ZM82.2775 25.76V23.6H104.518C109.744 23.6 113.744 24.8533 116.518 27.36C119.344 29.8133 120.758 33.0933 120.758 37.2V39.68C120.758 42.9333 119.851 45.7067 118.038 48C116.278 50.24 113.744 51.7867 110.438 52.64L120.677 71.52C121.371 72.8 121.878 73.7067 122.198 74.24C122.518 74.72 122.811 75.04 123.078 75.2C123.398 75.3067 123.824 75.3867 124.358 75.44L127.958 75.92V78H115.878L103.238 53.36H95.3975V71.52C95.3975 73.3867 95.4775 74.48 95.6375 74.8C95.7975 75.12 96.3042 75.3333 97.1575 75.44L101.558 75.92V78H82.2775V75.92L86.6775 75.44C87.5308 75.3333 88.0375 75.12 88.1975 74.8C88.3575 74.48 88.4375 73.3867 88.4375 71.52V30.08C88.4375 28.2133 88.3575 27.12 88.1975 26.8C88.0375 26.48 87.5308 26.2667 86.6775 26.16L82.2775 25.76ZM104.518 26.16H95.3975V50.8H104.518C107.291 50.8 109.451 49.92 110.998 48.16C112.598 46.3467 113.398 43.6267 113.398 40V36.88C113.398 33.2533 112.598 30.56 110.998 28.8C109.451 27.04 107.291 26.16 104.518 26.16ZM143.478 75.92V78H128.277V75.92L132.598 75.44C133.184 75.3867 133.611 75.3067 133.878 75.2C134.144 75.04 134.384 74.72 134.598 74.24C134.864 73.7067 135.184 72.8 135.558 71.52L150.998 23.6H156.038L171.638 71.52C172.011 72.8 172.304 73.7067 172.517 74.24C172.784 74.72 173.051 75.04 173.318 75.2C173.584 75.3067 173.984 75.3867 174.518 75.44L178.918 75.92V78H159.478V75.92L163.878 75.44C164.731 75.3333 165.184 75.12 165.238 74.8C165.344 74.4267 165.104 73.3333 164.518 71.52L161.238 61.28H141.718L138.438 71.52C137.851 73.3333 137.584 74.4267 137.638 74.8C137.744 75.12 138.224 75.3333 139.078 75.44L143.478 75.92ZM142.518 58.72H160.438L151.478 30.88L142.518 58.72Z" fill="black"/>
</svg>
